<svg enable-background="new 0 0 49 60" height="512" viewBox="0 0 49 60" width="512" xmlns="http://www.w3.org/2000/svg"><path d="m5 37c-.201 0-.401-.061-.571-.179-.269-.187-.429-.493-.429-.821v-33c0-.331.164-.641.438-.827s.622-.225.93-.103l43 17c.385.152.636.526.632.94s-.263.783-.651.927l-43 16c-.113.042-.232.063-.349.063zm1-32.529v30.09l39.208-14.589z"/><path d="m5 56c-.552 0-1-.448-1-1v-54c0-.552.448-1 1-1s1 .448 1 1v54c0 .552-.448 1-1 1z"/><path d="m9 35.512c-.552 0-1-.448-1-1v-7.512c0-.552.448-1 1-1s1 .448 1 1v7.512c0 .552-.448 1-1 1z"/><path d="m9 60h-8c-.552 0-1-.448-1-1v-4c0-.552.448-1 1-1h8c.552 0 1 .448 1 1v4c0 .552-.448 1-1 1zm-7-2h6v-2h-6z"/></svg>